HIERARCHY
ROOT Hips
{
	OFFSET 0.00000 0.00000 0.00000
	CHANNELS 6 Xposition Yposition Zposition Zrotation Yrotation Xrotation 
	JOINT LHipJoint
	{
		OFFSET 0 0 0
		CHANNELS 3 Zrotation Yrotation Xrotation
		JOINT LeftHip
		{
			OFFSET 1.36337 -1.57426 1.11036
			CHANNELS 3 Zrotation Yrotation Xrotation
			JOINT LeftKnee
			{
				OFFSET 2.38468 -6.55187 0.00000
				CHANNELS 3 Zrotation Yrotation Xrotation
				JOINT LeftAnkle
				{
					OFFSET 2.37166 -6.51609 0.00000
					CHANNELS 3 Zrotation Yrotation Xrotation
					JOINT LeftToe
					{
						OFFSET 0.29078 -0.79891 2.01393
						CHANNELS 3 Zrotation Yrotation Xrotation
						End Site
						{
							OFFSET 0.00000 -0.00000 1.07924
						}
					}
				}
			}
		}
	}
	JOINT RHipJoint
	{
		OFFSET 0 0 0
		CHANNELS 3 Zrotation Yrotation Xrotation
		JOINT RightHip
		{
			OFFSET -1.36349 -1.57426 1.11036
			CHANNELS 3 Zrotation Yrotation Xrotation
			JOINT RightKnee
			{
				OFFSET -2.29562 -6.30717 0.00000
				CHANNELS 3 Zrotation Yrotation Xrotation
				JOINT RightAnkle
				{
					OFFSET -2.40985 -6.62100 0.00000
					CHANNELS 3 Zrotation Yrotation Xrotation
					JOINT RightToe
					{
						OFFSET -0.23197 -0.63733 1.92232
						CHANNELS 3 Zrotation Yrotation Xrotation
						End Site
						{
							OFFSET -0.00000 -0.00000 1.01562
						}
					}
				}
			}
		}
	}
	JOINT lowerback
	{
		OFFSET 0 0 0
		CHANNELS 3 Zrotation Yrotation Xrotation
		JOINT Chest
		{
			OFFSET -0.08565 2.03602 -0.24562
			CHANNELS 3 Zrotation Yrotation Xrotation
			JOINT Chest2
			{
				OFFSET -0.00036 2.05693 0.00216
				CHANNELS 3 Zrotation Yrotation Xrotation
				JOINT lowerneck
				{
					OFFSET 0 0 0
					CHANNELS 3 Zrotation Yrotation Xrotation
					JOINT Neck
					{
						OFFSET -0.03664 1.69515 0.31789
						CHANNELS 3 Zrotation Yrotation Xrotation
						JOINT Head
						{
							OFFSET 0.00932 1.70181 -0.46013
							CHANNELS 3 Zrotation Yrotation Xrotation
							End Site
							{
								OFFSET 0.01243 1.77620 -0.19377
							}
						}
					}
				}
				JOINT LeftCollar
				{
					OFFSET 0 0 0
					CHANNELS 3 Zrotation Yrotation Xrotation
					JOINT LeftShoulder
					{
						OFFSET 3.74344 0.81315 -0.36647
CHANNELS 3 Zrotation Xrotation Yrotation
						JOINT LeftElbow
						{
OFFSET 0 -4.971850 -0.000000
CHANNELS 3 Zrotation Xrotation Yrotation
							JOINT LeftWrist
							{
OFFSET 0 -3.358110 0.000000
CHANNELS 3 Zrotation Xrotation Yrotation
								JOINT lhand
								{
									OFFSET 0 0 0
CHANNELS 3 Zrotation Xrotation Yrotation
									JOINT LFingers
									{
OFFSET 0 -0.622780 0.000000
CHANNELS 3 Zrotation Xrotation Yrotation
										End Site
										{
OFFSET 0 -0.502100 0.000000
										}
									}
								}
								JOINT LThumb
								{
OFFSET 0 0.000000 0.000000
CHANNELS 3 Zrotation Xrotation Yrotation
									End Site
									{
OFFSET 0 -0.509760 0.509760
									}
								}
							}
						}
					}
				}
				JOINT RightCollar
				{
					OFFSET 0 0 0
					CHANNELS 3 Zrotation Yrotation Xrotation
					JOINT RightShoulder
					{
						OFFSET -3.75385 0.50666 -0.06525
CHANNELS 3 Zrotation Xrotation Yrotation
						JOINT RightElbow
						{
OFFSET 0 -4.964930 -0.000000
CHANNELS 3 Zrotation Xrotation Yrotation
							JOINT RightWrist
							{
OFFSET 0 -3.349290 0.000000
CHANNELS 3 Zrotation Xrotation Yrotation
								JOINT rhand
								{
									OFFSET 0 0 0
CHANNELS 3 Zrotation Xrotation Yrotation
									JOINT RFingers
									{
OFFSET 0 -0.638040 0.000000
CHANNELS 3 Zrotation Xrotation Yrotation
										End Site
										{
OFFSET 0 -0.514410 0.000000
										}
									}
								}
								JOINT RThumb
								{
OFFSET 0 0.000000 0.000000
CHANNELS 3 Zrotation Xrotation Yrotation
									End Site
									{
OFFSET 0 -0.522260 0.522260
									}
								}
							}
						}
					}
				}
			}
		}
	}
}
MOTION
Frames: 7
Frame Time: 0.008333333333333333
-25.558000 16.516700 1.484100 175.768000 28.543800 -167.050000 0.000000 0.000000 0.000000 -10.634800 2.940100 -32.822500 5.631300 14.061300 43.483300 -0.458900 12.941800 -10.220200 0.392900 -4.024600 -11.145900 0.000000 0.000000 0.000000 23.586700 0.132400 -19.107000 -1.611200 -8.004500 22.727600 -2.575500 -18.432500 -41.172500 -1.314000 -7.260700 20.490000 8.249100 1.228100 -23.022700 1.209600 -0.420500 -0.694400 -3.470300 0.365500 12.121400 8.884700 10.293400 -14.831400 -7.144600 15.763000 26.738000 -1.546700 7.480000 12.632500 0.000000 0.000000 0.000000 2.790600 -18.984000 -78.744000 100.277300 -59.597100 68.888300 -2.595600 -36.161400 11.213900 0.000000 0.000000 0.000000 -7.125000 0.000000 0.000000 -20.581900 19.068800 -13.632000 0.000000 0.000000 0.000000 10.612800 -39.574400 107.704600 -113.052200 -57.893600 -79.822600 -0.645900 -6.975100 16.945400 0.000000 0.000000 0.000000 7.125000 0.000000 -0.000000 25.139400 45.299600 -0.198700
-25.553222 16.517849 1.431131 175.825319 29.636025 -167.234711 0.000000 0.000000 0.000000 -10.507572 2.249568 -33.264597 5.817599 14.249175 44.245286 -0.302562 11.296666 -10.340539 0.453180 -4.316354 -11.968812 0.000000 0.000000 0.000000 23.420410 0.540504 -18.426670 -1.573027 -7.913499 22.451667 -2.394029 -18.379766 -40.299326 -1.772112 -8.374043 23.856151 8.027909 1.374434 -22.839604 1.252502 -0.183884 -0.528275 -3.217620 0.461077 12.242688 8.881503 10.389639 -14.775299 -7.333806 15.854064 26.272441 -1.610712 7.492829 12.462838 0.000000 0.000000 0.000000 2.596109 -18.979047 -78.757500 100.408219 -59.586667 69.001257 -2.901156 -35.521148 11.527281 0.000000 0.000000 0.000000 -7.125000 0.000000 0.000000 -20.743867 18.776589 -13.901116 0.000000 0.000000 0.000000 10.317511 -39.529390 107.662293 -112.719115 -57.956917 -79.540341 -2.083469 -5.177357 16.705878 0.000000 0.000000 0.000000 7.125000 0.000000 0.000000 23.790385 45.254419 -0.158918
-25.557679 16.529615 1.362962 175.819990 30.777564 -167.570109 0.000000 0.000000 0.000000 -9.891289 0.409959 -32.859009 5.844362 14.275833 44.353878 -0.072251 9.644118 -12.430345 0.159565 -2.553613 -7.039396 0.000000 0.000000 0.000000 23.325421 -0.804473 -18.206041 -1.517586 -7.779336 22.045712 -2.124432 -17.694884 -38.441326 -1.509558 -7.759390 21.985816 7.773144 1.418410 -22.586426 1.204086 -0.057238 -0.389742 -3.086557 0.501692 12.277281 9.198411 10.443700 -14.680966 -7.632107 15.915362 26.119139 -1.763689 7.515146 12.449516 0.000000 0.000000 0.000000 2.514027 -18.869313 -78.859907 100.250170 -59.599275 68.864986 -1.828791 -35.227645 11.771683 0.000000 0.000000 0.000000 -7.125000 0.000000 0.000000 -20.005633 18.539729 -13.450070 0.000000 0.000000 0.000000 10.448550 -39.251413 107.832066 -112.957132 -57.911693 -79.741996 -2.631013 -5.384783 17.884720 0.000000 0.000000 0.000000 7.125000 0.000000 0.000000 23.815260 46.400637 -0.869893
-25.576311 16.524854 1.278253 175.980359 32.104255 -167.692309 0.000000 0.000000 0.000000 -9.489923 -0.509542 -32.950189 5.643817 14.074030 43.534888 -0.083691 8.908385 -10.995306 0.402219 -4.055390 -11.234492 0.000000 0.000000 0.000000 23.091685 -0.478040 -17.599405 -1.494871 -7.723421 21.877163 -2.104960 -17.273546 -37.989744 -1.553360 -7.866032 22.308114 7.861108 1.532854 -22.345420 1.044531 0.082759 -0.237978 -3.272402 0.573745 12.335884 9.208445 10.698929 -14.761588 -7.508156 16.156288 25.869500 -1.676528 7.620488 12.379208 0.000000 0.000000 0.000000 2.692435 -19.039629 -78.761935 100.155992 -59.606618 68.783742 -1.968170 -35.085782 11.612307 0.000000 0.000000 0.000000 -7.125000 0.000000 0.000000 -20.116973 18.690736 -13.462800 0.000000 0.000000 0.000000 10.609326 -39.365760 107.882028 -112.702833 -57.959947 -79.526594 -2.532432 -5.070406 17.671508 0.000000 0.000000 0.000000 7.125000 0.000000 0.000000 23.807775 46.192402 -0.742467
-25.588233 16.543612 1.182554 176.424240 33.735299 -167.349038 0.000000 0.000000 0.000000 -8.165080 -2.090064 -32.879194 5.334296 13.750303 42.246948 -0.001022 8.029715 -11.428624 0.174904 -2.516342 -6.944234 0.000000 0.000000 0.000000 23.145969 -0.085846 -16.889375 -1.378111 -7.428099 20.990317 -1.879649 -17.231176 -36.804757 -1.346230 -7.344074 20.739535 7.956434 1.693437 -22.174319 0.908588 0.307786 -0.339789 -3.409675 0.678333 12.150229 9.551864 10.901405 -14.390713 -7.553848 16.366814 25.652697 -1.730231 7.750872 12.278205 0.000000 0.000000 0.000000 2.974033 -18.629566 -78.677027 100.488327 -59.580207 69.070298 -1.368879 -34.785695 11.862458 0.000000 0.000000 0.000000 -7.125000 0.000000 0.000000 -19.690432 18.449402 -13.252035 0.000000 0.000000 0.000000 10.939019 -39.323798 108.095159 -112.357600 -58.024300 -79.233800 -3.407814 -5.314017 18.427319 0.000000 0.000000 0.000000 7.125000 0.000000 0.000000 23.365472 46.996912 -1.215846
-25.622759 16.565190 1.063333 176.943878 35.419654 -166.936933 0.000000 0.000000 0.000000 -6.731153 -3.737403 -32.789543 4.920664 13.293569 40.478196 0.042924 7.317548 -11.348957 0.015811 -0.796912 -2.190212 0.000000 0.000000 0.000000 23.157411 -0.484219 -16.316658 -1.220210 -7.006480 19.734482 -1.593212 -16.656945 -34.756621 -1.223977 -7.016819 19.765293 8.062420 1.788291 -22.052664 0.866182 0.417266 -0.340353 -3.483757 0.732456 12.096150 9.733160 11.175060 -14.199182 -7.505777 16.666672 25.448794 -1.699848 7.904665 12.203106 0.000000 0.000000 0.000000 2.962701 -18.407360 -78.483569 100.525502 -59.577248 69.102395 -0.269177 -35.172184 12.519911 0.000000 0.000000 0.000000 -7.125000 0.000000 0.000000 -18.889313 17.812383 -12.929258 0.000000 0.000000 0.000000 10.897615 -39.155420 107.965282 -112.429632 -58.010964 -79.294982 -3.076095 -5.147220 18.028054 0.000000 0.000000 0.000000 7.125000 0.000000 0.000000 23.483343 46.588083 -0.972143
-25.661190 16.577604 0.923981 177.291037 37.345912 -166.629816 0.000000 0.000000 0.000000 -5.753377 -4.901911 -32.757582 4.393447 12.665411 38.130101 -0.056725 7.908631 -9.991139 0.143447 -2.430686 -6.697987 0.000000 0.000000 0.000000 22.879554 -1.126658 -16.021379 -1.109670 -6.692416 18.807417 -1.392769 -15.596822 -32.631721 -0.952169 -6.211306 17.399720 8.051112 1.849983 -21.833498 0.633227 0.529599 -0.279848 -3.706789 0.784779 12.060425 10.167637 11.654680 -14.449087 -7.352186 17.181586 25.612673 -1.593782 8.159801 12.398623 0.000000 0.000000 0.000000 3.079272 -18.230497 -78.144688 100.140872 -59.607826 68.770677 1.411290 -36.245867 13.263728 0.000000 0.000000 0.000000 -7.125000 0.000000 0.000000 -17.703080 17.067924 -12.334435 0.000000 0.000000 0.000000 11.166200 -39.109783 107.931767 -112.083961 -58.074483 -79.001572 -3.048406 -5.259184 18.332902 0.000000 0.000000 0.000000 7.125000 0.000000 0.000000 23.642104 46.863546 -1.149201
